<?xml version="1.0" encoding="utf-8"?>
<!-- Generator: Adobe Illustrator 17.1.0, SVG Export Plug-In . SVG Version: 6.00 Build 0)  -->
<!DOCTYPE svg PUBLIC "-//W3C//DTD SVG 1.1//EN" "http://www.w3.org/Graphics/SVG/1.1/DTD/svg11.dtd">
<svg version="1.1" xmlns="http://www.w3.org/2000/svg" xmlns:xlink="http://www.w3.org/1999/xlink" x="0px" y="0px"
	 viewBox="0 0 206 170" enable-background="new 0 0 206 170" xml:space="preserve">
<g id="Layer_2">
	<path fill="#FFFFFF" d="M53.7,102c0,0,4.4,15.5,6.5,14.7c2.1-0.8,15.1-0.8,15.1-0.8l-3.9,5l-13.7,0.8l-4.9,7.2l4.4,7.9h10.3
		l-1.7,4.9l-8.9,0.1l-7.5,12.8l7,12.3h15l6.7-12.9l-4.1-8.1l3-4.9l5.1,10.6h9l3.6-7.9l-7.3-12.8l3.4-5.8l6.5,11.4h13.5l6.5-11.4
		l3.4,5.8l-7.3,12.8l3.6,7.9h9l5.1-10.6l3.1,5.5l-4.2,7.5l7.1,12.1h14.2l7-12.3l-6.6-12.8l-9.4,0.7l-3-5.6l10.7,0.8l4.4-7.9l-4-7.2
		l-14.1-0.7l-2-4.3H148l7.8-14.7l17.9,1.5l1.5-3.9l-4.2-9l4.4,0.1l4.5,7.2H195l6.6-13l-7-12h-14.4l-5,7.7l-4.3-1.2l4.3-9.1l-4.2-7
		l-8.7-0.8l-6.5,11.4l-8-15.8l-3.2-4.6l-10.8-0.8l2.4-4.2h14.6l3.6-7.9l-3.5-8h-10.2l1.9-4.7l8.5,0.8l6.5-13l-7-11.7l-14.2-0.8
		l-7.4,12.6l4.3,7.3l-2.5,5.5l-5.5-9.8l-8.1-0.1l-4.1,7.3l6.3,12.4l-2.5,5.9l-6.3-11L98,32.9l-6.4,11.3l-3.4-5.9l7.2-12.4l-4.1-7.3
		l-8.1,0.1l-5.9,9.2l-3-4.8l4.3-7.3L71.6,4H57.8l-7,11.7l6.5,13h8.1l3.7,4.7H57.9l-4,7.2l2.9,7.6l15.3,0.3l3.7,5H63.1L51.5,70.7
		l-2.7-1.2l-3.6-6.2l-9.3,0.2l-4,6.8l5.2,9.1l-5.2,0.4l-4.1-6.9H13.4l-7,12l6.6,13L27.7,97l4.9-6.4l4.4-0.1l-5.2,9l5,7.7L53.7,102z"
		/>
</g>
<g id="Layer_1">
	<g>
		<g>
			<g>
				<polygon fill="#21205F" points="63.4,53.9 76.6,53.9 72.8,47.2 58.2,47.2 54.5,40.5 58.2,33.9 69.9,33.9 66.1,27.5 58,27.5 
					51.4,15.7 58.1,4.5 71.3,4.5 78,15.8 73.7,23.1 77.7,29.5 83.5,19.3 91,19.2 94.8,25.9 87.6,38.4 91.6,45.2 98.3,33.4 
					109.8,33.4 109.9,33.4 116.5,45.2 120.5,38.4 113.3,25.9 117.1,19.2 124.7,19.3 130.5,29.5 134.5,23.1 130.2,15.8 136.8,4.5 
					150.1,4.5 156.8,15.7 150.1,27.5 142.1,27.5 138.3,33.9 150,33.9 153.7,40.5 149.9,47.2 135.3,47.2 131.5,53.9 144.8,53.9 
					150.8,64.3 151.6,62.3 145.8,52.2 134.5,52.2 136.3,48.9 150.9,48.9 155.7,40.6 151,32.1 141.3,32.1 143.1,29.2 151.1,29.2 
					158.8,15.7 151.1,2.8 135.8,2.8 128.1,15.8 132.4,23.1 130.5,26.1 125.7,17.5 116.1,17.4 111.3,25.9 118.5,38.4 116.6,41.7 
					110.9,31.7 97.3,31.7 91.6,41.7 89.6,38.4 96.8,25.9 92,17.4 82.5,17.5 77.6,26.1 75.7,23.1 80,15.8 72.3,2.8 57.1,2.8 
					49.4,15.7 57,29.2 65.1,29.2 66.8,32.1 57.2,32.1 52.5,40.6 57.2,48.9 71.8,48.9 73.6,52.2 62.4,52.2 56.5,62.3 57.4,64.3 				
					"/>
				<path fill="#21205F" d="M150.8,65.4l-6.4-11h-13.8l4.3-7.7h14.6l3.5-6.2l-3.4-6.2h-12.3l4.4-7.4h8l6.4-11.3L149.8,5h-12.7
					l-6.4,10.8l4.3,7.3l-4.6,7.4l-6.1-10.8l-7-0.1l-3.5,6.3l7.2,12.4l-4.5,7.8l-7-12.3h-11l-7,12.3l-4.5-7.8l7.2-12.4l-3.5-6.3
					l-7,0.1l-6.1,10.8l-4.6-7.4l4.3-7.3L71,5H58.3l-6.4,10.7L58.3,27h8l4.4,7.4H58.5L55,40.5l3.5,6.2h14.6l4.3,7.7H63.7l-6.4,10.9
					L56,62.2l6.1-10.5h10.7l-1.3-2.3H56.9l-5-8.9l4.9-8.9H66l-1.2-1.9h-8.1l-7.9-14l8-13.4h15.8l8,13.5l-4.3,7.3l1.3,2.1l4.6-8.2
					l10.1-0.1l5.1,9l-7.2,12.4l1.4,2.4l5.4-9.6h14.1l5.4,9.6l1.4-2.4L110.8,26l5.1-9L126,17l4.6,8.2l1.3-2.1l-4.3-7.3l8-13.5h15.8
					l8,13.4l-7.9,14h-8.1l-1.2,1.9h9.1l4.9,8.9l-5,8.9h-14.6l-1.3,2.3H146l6.1,10.5L150.8,65.4z M132.4,53.5H145l5.7,9.8l0.4-0.9
					l-5.6-9.7h-11.8l2.4-4.2h14.6l4.4-7.9l-4.4-8h-10.2l2.3-3.9h8.1l7.4-13.1l-7.4-12.4h-14.7l-7.4,12.6l4.3,7.3l-2.5,4l-5.1-9.1
					l-9-0.1l-4.5,8.1l7.2,12.4l-2.5,4.3l-6-10.5h-13l-6,10.5l-2.5-4.3l7.2-12.4l-4.5-8.1l-9,0.1l-5.1,9.1l-2.5-4l4.3-7.3L72,3.2
					H57.4l-7.4,12.4l7.4,13.1h8.1l2.3,3.9H57.4l-4.4,8l4.4,7.9h14.6l2.4,4.2H62.7l-5.6,9.6l0.4,0.9l5.7-9.8h12.7l-3.2-5.8H57.9
					l-4-7.1l4-7.2H69l-3.3-5.4h-8l-6.9-12.3l7-11.7h13.8l7,11.8l-4.3,7.3l3.4,5.5l5.5-9.8l8.1-0.1l4.1,7.3l-7.2,12.4l3.4,5.9
					L98,32.9h12.1l0.2,0.2l6.3,11l3.4-5.9l-7.2-12.4l4.1-7.3l8.1,0.1l5.5,9.8l3.4-5.5l-4.3-7.3l7-11.8h13.8l7,11.7l-6.9,12.3h-8
					l-3.3,5.4h11.2l4,7.2l-4,7.1h-14.6L132.4,53.5z"/>
			</g>
			<g>
				<polygon fill="#21205F" points="195.3,71.5 179.5,71.5 175,78.9 171.6,78.8 176.6,70.2 171.7,61.9 162,61.9 157.9,69 158.8,71 
					163,63.7 170.7,63.7 174.6,70.2 168.6,80.5 176,80.6 180.4,73.3 194.3,73.3 201,84.8 194.2,96.5 180.5,96.5 176,89.4 
					168.7,89.2 174.6,99.5 171.7,104.2 172.5,106.2 176.6,99.6 171.7,91.1 175,91.1 179.6,98.3 195.2,98.3 203.1,84.8 				"/>
				<path fill="#21205F" d="M172.5,107.2l-1.3-3.1l2.9-4.6l-6.2-10.8l8.4,0.1l4.5,7.2h13.2l6.5-11.3l-6.5-11h-13.3l-4.4,7.4
					l-8.5-0.1l6.2-10.8l-3.6-6.1h-7.1l-4.6,7.9l-1.3-3.1l4.4-7.5h10.2l5.2,8.8l-4.7,8.1l2.3,0l4.4-7.3h16.4l8.1,13.7l-8.1,14h-16.2
					l-4.5-7.2l-2.2,0l4.6,8L172.5,107.2z M172.2,104.2l0.4,0.9l3.4-5.6l-5.1-9l4.4,0.1l4.5,7.2H195l7.6-13L195,72h-15.3l-4.4,7.4
					l-4.5-0.1l5.2-9.1l-4.7-7.8h-9.1l-3.8,6.6l0.4,0.9l3.9-6.7h8.2l4.2,7l-5.7,9.8l6.3,0.1l4.4-7.4h14.4l7,12L194.5,97h-14.2
					l-4.5-7.2l-6.2-0.1l5.6,9.8L172.2,104.2z"/>
			</g>
			<g>
				<polygon fill="#21205F" points="12.6,71.5 28.5,71.5 32.9,78.9 36.3,78.8 31.3,70.2 36.3,61.9 45.9,61.9 50,69 49.2,71 
					44.9,63.7 37.3,63.7 33.3,70.2 39.3,80.5 31.9,80.6 27.5,73.3 13.6,73.3 6.9,84.8 13.7,96.5 27.4,96.5 31.9,89.4 39.2,89.2 
					33.3,99.5 36.2,104.2 35.4,106.2 31.3,99.6 36.2,91.1 32.9,91.1 28.4,98.3 12.7,98.3 4.8,84.8 				"/>
				<path fill="#21205F" d="M35.4,107.2l-4.7-7.7l4.6-8l-2.2,0l-4.5,7.2H12.4l-8.1-14L12.4,71h16.4l4.4,7.3l2.3,0l-4.7-8.1l5.2-8.8
					h10.2l4.4,7.5L49.2,72l-4.6-7.9h-7.1l-3.6,6.1L40.1,81l-8.5,0.1l-4.4-7.4H13.9l-6.5,11L14,96.1h13.2l4.5-7.2l8.4-0.1l-6.2,10.8
					l2.9,4.6L35.4,107.2z M31.9,99.5l3.4,5.6l0.4-0.9l-2.9-4.7l5.6-9.8l-6.2,0.1L27.7,97H13.4L6.3,84.8l7-12h14.4l4.4,7.4l6.3-0.1
					l-5.7-9.8l4.2-7h8.2l3.9,6.7l0.4-0.9l-3.8-6.6h-9.1l-4.7,7.8l5.2,9.1l-4.5,0.1L28.2,72H12.9L5.4,84.8l7.6,13h15.1l4.5-7.2
					l4.4-0.1L31.9,99.5z"/>
			</g>
			<g>
				<polygon fill="#21205F" points="147.3,115.4 132.1,115.4 136.1,122.2 150.1,122.2 153.9,128.8 150.2,135.5 138.5,135.5 
					142.1,142.1 151,142.2 157.8,153.7 151.1,165.5 137.5,165.5 130.6,153.8 134.8,146.4 131.2,139.9 125.3,150.2 117.8,150.2 
					114,143.5 121.3,130.7 117.3,124 110.5,135.9 97.6,135.9 90.8,124 86.9,130.7 94.2,143.5 90.4,150.2 82.8,150.2 77,139.9 
					73.4,146.4 77.5,153.8 70.7,165.5 57.1,165.5 50.4,153.7 57.2,142.2 66.1,142.1 69.6,135.5 57.9,135.5 54.3,128.8 58,122.2 
					72.1,122.2 76.1,115.4 60.9,115.4 55.7,106.2 53.7,106.2 59.9,117.1 73.1,117.1 71.2,120.4 57,120.4 52.3,128.8 56.9,137.2 
					66.7,137.2 65.1,140.3 56.2,140.4 48.4,153.7 56.1,167.2 71.7,167.2 79.5,153.9 75.3,146.4 77,143.4 81.8,151.9 91.4,151.9 
					96.2,143.5 88.9,130.7 90.8,127.5 96.6,137.7 110.4,137.7 111.5,137.7 117.4,127.5 119.3,130.7 112,143.5 116.8,151.9 
					126.3,151.9 131.2,143.4 132.8,146.4 128.6,153.9 136.5,167.2 152.1,167.2 159.8,153.7 152,140.4 143.1,140.3 141.4,137.2 
					151.2,137.2 155.9,128.8 151.1,120.4 137.1,120.4 135.2,117.1 148.3,117.1 154.4,106.2 152.4,106.2 				"/>
				<path fill="#21205F" d="M152.4,167.7h-16.2l-8.1-13.9l4.2-7.5l-1.1-2l-4.5,8h-10.1l-5.1-8.9l7.3-12.8l-1.4-2.3l-5.6,9.7H96.3
					l-5.6-9.7l-1.4,2.3l7.3,12.8l-5.1,8.9H81.5l-4.5-8l-1.1,2l4.2,7.5L72,167.7H55.8l-8-14l8.1-13.8l8.9-0.1l1.1-2.2h-9.3l-4.9-8.9
					l5-8.9h14.2l1.4-2.3H59.6l-6.7-11.9l3.1,0l5.2,9.2H77l-4.6,7.7H58.3l-3.5,6.2l3.4,6.1h12.2l-4,7.6l-9,0.1l-6.5,11.1l6.4,11.3
					h13.1l6.5-11.2l-4.2-7.5l4.2-7.5l6.1,10.8h7l3.5-6.1l-7.3-12.8l4.5-7.7l7.1,12.4h12.3l7.1-12.4l4.5,7.7l-7.3,12.8l3.5,6.1h7
					l6.1-10.8l4.2,7.5l-4.2,7.5l6.5,11.2h13.1l6.4-11.3l-6.5-11.1l-9-0.1l-4-7.6h12.2l3.4-6.1l-3.5-6.2h-14l-4.6-7.7H147l5.2-9.2
					l3.1,0l-6.7,11.9H136l1.4,2.3h14.1l5,8.9l-4.9,8.9h-9.3l1.1,2.2l8.9,0.1l8.1,13.8L152.4,167.7z M136.8,166.8h15l7.4-13.1
					l-7.5-12.8l-8.9-0.1l-2.2-4.1h10.3l4.4-7.9l-4.5-8h-14l-2.5-4.2H148l5.6-10l-0.9,0l-5.2,9.2H133l3.4,5.8h14l4,7.2l-4,7.1h-11.2
					l3,5.6l8.9,0.1l7,12l-7,12.3h-14.2l-7.1-12.1l4.2-7.5l-3.1-5.5l-5.5,9.8h-8.1l-4.1-7.1l7.3-12.8l-3.4-5.8l-6.5,11.4H97.3
					L90.8,125l-3.4,5.8l7.3,12.8l-4.1,7.1h-8.1l-5.5-9.8l-3.1,5.5l4.2,7.5L71,166H56.8l-7-12.3l7-12l8.9-0.1l3-5.6H57.7l-4-7.1
					l4-7.2h14.1l3.4-5.8H60.6l-5.2-9.2l-0.9,0l5.6,10h13.8l-2.5,4.2H57.3l-4.5,8l4.4,7.9h10.3l-2.2,4.1l-8.9,0.1l-7.5,12.8l7.4,13.1
					h15l7.6-12.9l-4.2-7.5l2.2-4l5.1,9h9l4.5-7.9l-7.3-12.8l2.5-4.2l6.1,10.7h14.3l6.1-10.7l2.5,4.2l-7.3,12.8l4.5,7.9h9l5.1-9
					l2.2,4l-4.2,7.5L136.8,166.8z"/>
			</g>
			<polygon fill="#D71920" points="56,62.3 56,62.3 56,62.3 			"/>
			<polygon fill="#D71920" points="152.2,62.3 152.2,62.3 152.2,62.3 			"/>
		</g>
		<polygon fill="#D71920" points="101.8,64.5 101.8,76.8 115.4,76.8 115.4,109.5 128,109.5 128,77 140.6,77 140.6,64.5 		"/>
		<path fill="#D71920" d="M92.3,64.3v33.2h18.3v12l-30.5-0.1V64.3H92.3z"/>
	</g>
	<g>
		<path fill="#FFFFFF" d="M64.3,106.4L72.5,95L56.7,60.3l-20.8,49.2H49l2.4-5.2l10.8-0.1L64.3,106.4z M59.3,93.2h-5.5l2.8-8
			L59.3,93.2z"/>
		<path fill="#FFFFFF" d="M56.7,60.3L72.5,95l-8.2,11.4l-2.2-2.2l-10.8,0.1l-2.4,5.2H35.9L56.7,60.3 M53.8,93.2h5.5l-2.8-8
			L53.8,93.2 M56.6,53.2l-2.6,6.1l-20.8,49.2l-1.7,4h4.4H49h1.9l0.8-1.7l1.6-3.5l7.7,0l1.3,1.3l2.4,2.4l2-2.8l8.2-11.4l1-1.4
			l-0.7-1.5L59.4,59.1L56.6,53.2L56.6,53.2z"/>
	</g>
	<path fill="#FFFFFF" d="M152.2,60.3l20.9,49.2h-13.4l-2.2-5.4l-10.8,0.1l-2.4,0l-6.8-3L152.2,60.3 M149.2,93.2h5.5l-2.8-8
		L149.2,93.2 M151.9,52.4l-2.5,7l-14.5,40.9l-0.9,2.5l2.4,1.1l6.8,3l0.5,0.2l0.6,0l2.4,0l0,0l0,0l8.8-0.1l1.4,3.5l0.7,1.8h2h13.4
		h4.4l-1.7-4l-20.9-49.2L151.9,52.4L151.9,52.4z"/>
	<g>
		<path fill="#D71920" d="M64.3,109.6h13.4L56.7,60.3l-20.8,49.2H49l2.4-5.2l10.8-0.1L64.3,109.6z M59.3,93.2h-5.5l2.8-8L59.3,93.2z
			"/>
	</g>
	<g>
		<path fill="#D71920" d="M159.7,109.6h13.4l-20.9-49.2l-20.8,49.2h13.1l2.4-5.2l10.8-0.1L159.7,109.6z M154.7,93.2h-5.5l2.8-8
			L154.7,93.2z"/>
	</g>
</g>
</svg>
